<?xml version="1.0" encoding="utf-8"?>
<!-- Generator: Adobe Illustrator 24.2.1, SVG Export Plug-In . SVG Version: 6.00 Build 0)  -->
<svg version="1.1" id="Layer_1" xmlns="http://www.w3.org/2000/svg" xmlns:xlink="http://www.w3.org/1999/xlink" x="0px" y="0px"
	 viewBox="0 0 216 360" style="enable-background:new 0 0 216 360;" xml:space="preserve">
<style type="text/css">
	.st0{display:none;}
	.st1{display:inline;}
	.st2{fill:none;stroke:#000000;stroke-miterlimit:10;}
	.st3{fill:none;}
	.st4{display:none;fill:none;stroke:#06070C;stroke-miterlimit:10;}
	.st5{font-family:'PoorRichard-Regular';}
	.st6{font-size:12px;}
	.st7{font-size:10px;}
	.st8{fill:none;stroke:#06070C;stroke-miterlimit:10;}
</style>
<g class="st0">
	<g class="st1">
		<path d="M74.19,117.45c0.16-0.04,0.33,0.07,0.51,0.32c0.18,0.25,0.3,0.5,0.36,0.74c0.06,0.24,0,0.38-0.18,0.42
			c-0.07,0.02-0.13,0.01-0.2-0.01c-0.07-0.02-0.17-0.13-0.33-0.31c-0.16-0.19-0.34-0.3-0.55-0.32c-0.21-0.03-0.43-0.01-0.66,0.04
			c-0.32,0.08-0.54,0.2-0.64,0.36c-0.11,0.16-0.12,0.38-0.04,0.65c0.61,2.06,1.22,4.12,1.82,6.18c0.03,0.09,0.08,0.17,0.17,0.22
			c0.08,0.05,0.24,0.08,0.45,0.08c0.22,0,0.35,0.01,0.41,0.04c0.05,0.03,0.09,0.07,0.1,0.12c0.06,0.2-0.04,0.34-0.28,0.4
			c-0.13,0.03-0.33,0.07-0.59,0.1c-0.26,0.03-0.46,0.07-0.58,0.1c-0.11,0.03-0.28,0.09-0.48,0.18c-0.21,0.09-0.37,0.15-0.48,0.18
			c-0.14,0.04-0.26,0.04-0.37,0.02c-0.11-0.03-0.18-0.09-0.21-0.19c-0.01-0.05-0.01-0.09,0.01-0.14c0.02-0.05,0.13-0.13,0.31-0.23
			c0.18-0.11,0.29-0.23,0.33-0.35c0.04-0.13,0.03-0.26-0.01-0.4c-0.63-2.08-1.26-4.15-1.91-6.23c-0.12-0.38-0.48-0.48-1.1-0.31
			c-0.4,0.11-0.66,0.27-0.78,0.47c-0.07,0.12-0.11,0.27-0.09,0.46c0.01,0.19,0,0.31-0.04,0.36c-0.04,0.05-0.09,0.08-0.16,0.1
			c-0.08,0.02-0.15,0.03-0.23,0.01c-0.08-0.01-0.13-0.04-0.14-0.09c-0.14-0.42-0.21-0.76-0.2-1.03c0.01-0.26,0.1-0.42,0.27-0.47
			C70.48,118.39,72.33,117.9,74.19,117.45z"/>
		<path d="M83.71,121.23c0.06-0.21,0.09-0.33,0.09-0.37c-0.01-0.06-0.04-0.11-0.09-0.14c-0.05-0.03-0.16-0.04-0.33-0.02
			c-0.17,0.02-0.28,0.01-0.33-0.01c-0.05-0.03-0.08-0.07-0.09-0.12c-0.02-0.1,0-0.17,0.05-0.22c0.06-0.05,0.16-0.09,0.3-0.11
			c0.04-0.01,0.16-0.01,0.35-0.01c0.19,0,0.36-0.01,0.52-0.04c0.03-0.01,0.13-0.03,0.3-0.09c0.17-0.05,0.32-0.09,0.46-0.11
			c0.22-0.03,0.34,0.02,0.37,0.16c0.02,0.14-0.11,0.25-0.41,0.33c-0.24,0.06-0.42,0.3-0.53,0.7c-0.28,1.02-0.55,2.04-0.81,3.06
			c-0.06,0.24-0.14,0.37-0.25,0.39c-0.11,0.02-0.19-0.02-0.26-0.12c-0.07-0.1-0.11-0.16-0.13-0.17c-0.59-0.62-1.19-1.24-1.8-1.85
			c-0.1-0.1-0.17-0.14-0.22-0.13c-0.05,0.01-0.08,0.08-0.11,0.2c-0.2,0.79-0.39,1.59-0.57,2.39c-0.01,0.03-0.01,0.05-0.02,0.08
			c-0.04,0.18-0.11,0.29-0.23,0.31c-0.07,0.01-0.13,0-0.18-0.03c-0.05-0.04-0.12-0.1-0.21-0.2c-0.76-0.84-1.53-1.68-2.32-2.52
			c-0.3-0.32-0.57-0.45-0.81-0.39c-0.16,0.04-0.29,0.04-0.39,0.01c-0.1-0.03-0.16-0.08-0.18-0.15c-0.04-0.16,0.05-0.27,0.29-0.33
			c0.22-0.05,0.43-0.08,0.63-0.09c0.2-0.01,0.35-0.03,0.47-0.05c0.06-0.01,0.19-0.06,0.38-0.14c0.2-0.08,0.32-0.12,0.37-0.13
			c0.17-0.04,0.3-0.04,0.38-0.02c0.08,0.02,0.13,0.08,0.15,0.16c0.02,0.1-0.04,0.19-0.2,0.28c-0.16,0.09-0.22,0.18-0.2,0.28
			c0.01,0.05,0.08,0.14,0.21,0.28c0.43,0.45,0.86,0.91,1.29,1.37c0.07,0.08,0.13,0.11,0.17,0.1c0.04-0.01,0.07-0.06,0.09-0.16
			c0.17-0.72,0.35-1.43,0.53-2.14c0.06-0.25,0.11-0.42,0.15-0.5c0.04-0.09,0.09-0.14,0.15-0.15c0.06-0.01,0.16,0.05,0.29,0.18
			c0.66,0.67,1.31,1.34,1.95,2.02c0.05,0.06,0.09,0.08,0.14,0.07c0.04-0.01,0.07-0.05,0.09-0.11
			C83.36,122.37,83.53,121.8,83.71,121.23z"/>
		<path d="M89.95,121.13c0.11-0.01,0.18-0.04,0.21-0.07c0.03-0.04,0.04-0.09,0.03-0.18c-0.04-0.3-0.21-0.57-0.53-0.8
			c-0.31-0.23-0.75-0.31-1.32-0.24c-0.39,0.05-0.77,0.25-1.13,0.62c-0.36,0.37-0.5,0.84-0.41,1.41c0.07,0.42,0.34,0.76,0.82,1.03
			c0.48,0.27,0.97,0.38,1.5,0.31c0.4-0.05,0.81-0.21,1.25-0.48c0.17-0.1,0.28-0.16,0.33-0.16c0.08-0.01,0.15,0,0.2,0.04
			c0.05,0.03,0.08,0.08,0.09,0.14c0.02,0.14-0.21,0.34-0.69,0.61c-0.47,0.26-0.97,0.43-1.5,0.49c-0.78,0.1-1.47-0.04-2.08-0.43
			c-0.61-0.39-0.97-0.9-1.09-1.54c-0.1-0.59,0.11-1.13,0.65-1.64c0.54-0.5,1.19-0.8,1.95-0.9c0.99-0.12,1.75,0.01,2.29,0.38
			c0.54,0.37,0.84,0.85,0.91,1.44c0.01,0.13-0.01,0.21-0.08,0.24c-0.07,0.04-0.21,0.07-0.4,0.09c-1.06,0.11-2.11,0.23-3.17,0.37
			c-0.26,0.03-0.4-0.03-0.42-0.19c-0.02-0.16,0.1-0.25,0.37-0.29C88.47,121.3,89.21,121.21,89.95,121.13z"/>
		<path d="M92.8,120.06c-0.01-0.15-0.06-0.25-0.14-0.32c-0.08-0.07-0.22-0.11-0.44-0.12c-0.22-0.01-0.34-0.08-0.35-0.22
			c-0.01-0.06,0.03-0.11,0.1-0.18c0.07-0.06,0.17-0.1,0.29-0.11c0.05,0,0.15,0,0.28,0.02c0.13,0.02,0.24,0.02,0.33,0.01
			c0.05,0,0.17-0.03,0.36-0.06c0.19-0.04,0.3-0.06,0.35-0.06c0.1-0.01,0.16,0.02,0.21,0.08c0.04,0.06,0.08,0.19,0.1,0.39
			c0.04,0.33,0.08,0.67,0.11,1.04c0.04,0.56,0.07,1.12,0.11,1.68c0.01,0.12,0.03,0.2,0.05,0.22c0.03,0.03,0.08,0.06,0.17,0.09
			c0.09,0.04,0.2,0.06,0.33,0.08c0.13,0.01,0.22,0.04,0.26,0.08c0.04,0.04,0.06,0.09,0.07,0.14c0.01,0.13-0.1,0.21-0.34,0.22
			c-0.16,0.01-0.33,0.01-0.51,0c-0.17-0.01-0.35-0.01-0.52,0c-0.14,0.01-0.31,0.04-0.53,0.08c-0.21,0.04-0.37,0.07-0.48,0.08
			c-0.23,0.02-0.36-0.04-0.37-0.19c-0.01-0.06,0.01-0.12,0.04-0.16c0.04-0.04,0.12-0.08,0.26-0.1c0.15-0.02,0.25-0.05,0.28-0.09
			c0.1-0.1,0.15-0.19,0.17-0.26c0.02-0.07,0.02-0.22,0-0.44C92.93,121.35,92.87,120.7,92.8,120.06z M97.25,122.05
			c0.01,0.17,0.05,0.28,0.12,0.33c0.07,0.05,0.19,0.09,0.36,0.11c0.17,0.03,0.26,0.08,0.27,0.18c0.01,0.12-0.07,0.19-0.24,0.2
			c-0.03,0-0.17,0-0.41,0c-0.24,0-0.45,0-0.61,0.01c-0.27,0.01-0.5,0.04-0.69,0.08c-0.19,0.04-0.31,0.06-0.36,0.07
			c-0.08,0.01-0.16-0.01-0.24-0.06c-0.07-0.04-0.11-0.1-0.12-0.17c0-0.05,0.02-0.1,0.08-0.15c0.06-0.05,0.12-0.08,0.2-0.08
			c0.15-0.01,0.27-0.05,0.38-0.13c0.11-0.08,0.16-0.19,0.15-0.34c-0.07-0.95-0.1-1.53-0.1-1.76c0-0.23,0-0.35-0.01-0.38
			c-0.02-0.31-0.2-0.45-0.54-0.43c-0.14,0.01-0.35,0.11-0.6,0.32c-0.25,0.2-0.43,0.31-0.54,0.32c-0.04,0-0.08-0.01-0.13-0.05
			c-0.05-0.04-0.08-0.08-0.08-0.12c-0.01-0.14,0.18-0.37,0.59-0.68c0.41-0.31,0.82-0.48,1.24-0.5c0.25-0.01,0.46,0.03,0.65,0.12
			c0.19,0.1,0.31,0.22,0.38,0.38c0.07,0.15,0.11,0.37,0.13,0.66c0.01,0.13,0.01,0.25,0.02,0.38
			C97.18,120.91,97.22,121.48,97.25,122.05z"/>
		<path d="M100.71,121.45c0.01,0.33,0.03,0.54,0.07,0.63c0.04,0.09,0.11,0.14,0.2,0.13c0.15,0,0.33-0.08,0.55-0.22
			c0.22-0.14,0.36-0.21,0.44-0.21c0.06,0,0.12,0.02,0.16,0.07c0.05,0.05,0.07,0.1,0.07,0.17c0,0.11-0.18,0.29-0.53,0.55
			c-0.35,0.25-0.67,0.38-0.94,0.39c-0.72,0.01-1.09-0.43-1.13-1.34c-0.03-0.75-0.06-1.51-0.08-2.26c0-0.07-0.02-0.11-0.04-0.12
			c-0.02-0.01-0.16-0.01-0.4,0c-0.19,0.01-0.32-0.01-0.39-0.06c-0.07-0.04-0.1-0.11-0.11-0.2c0-0.08,0.02-0.13,0.07-0.16
			c0.05-0.03,0.14-0.07,0.29-0.11c0.14-0.04,0.25-0.08,0.33-0.13c0.08-0.05,0.18-0.14,0.32-0.29c0.14-0.15,0.23-0.35,0.28-0.61
			c0.05-0.26,0.07-0.63,0.05-1.12c-0.01-0.23,0.07-0.35,0.22-0.35c0.18,0,0.29,0.03,0.33,0.09c0.05,0.06,0.07,0.17,0.08,0.33
			c0.02,0.65,0.03,1.31,0.05,1.96c0,0.08,0.06,0.12,0.19,0.12c0.34,0,0.67-0.01,1.01-0.01c0.2,0,0.31,0.07,0.31,0.22
			c0,0.17-0.14,0.26-0.44,0.26c-0.3,0-0.59,0-0.89,0.01c-0.07,0-0.11,0.01-0.12,0.03c-0.01,0.02-0.02,0.06-0.02,0.13
			C100.67,120.05,100.69,120.75,100.71,121.45z"/>
		<path d="M106.68,122.07c0.12,0,0.18,0.06,0.17,0.15c0,0.12-0.19,0.26-0.56,0.43c-0.37,0.17-0.73,0.25-1.09,0.24
			c-0.24-0.01-0.51-0.08-0.79-0.23c-0.28-0.15-0.46-0.33-0.53-0.54c-0.07-0.21-0.1-0.6-0.1-1.15c0.01-0.39,0.01-0.78,0.02-1.17
			c0-0.32-0.17-0.51-0.51-0.57c-0.2-0.03-0.32-0.07-0.38-0.09c-0.05-0.03-0.08-0.09-0.08-0.18c0-0.06,0.02-0.12,0.06-0.16
			c0.04-0.04,0.1-0.07,0.17-0.07c0.07,0,0.2,0.02,0.41,0.06c0.2,0.04,0.34,0.06,0.39,0.06c0.07,0,0.21-0.02,0.41-0.05
			c0.21-0.03,0.34-0.05,0.39-0.05c0.03,0,0.07,0.02,0.12,0.04c0.05,0.03,0.07,0.06,0.08,0.09c0.01,0.03,0.01,0.3,0.02,0.81
			c0,0.51,0,0.98,0,1.41c0,0.33,0.01,0.56,0.03,0.71c0.03,0.15,0.11,0.27,0.25,0.36c0.14,0.09,0.33,0.14,0.57,0.15
			c0.18,0.01,0.36-0.04,0.56-0.13C106.48,122.12,106.61,122.07,106.68,122.07z M108.11,118.89c0.17,0.01,0.25,0.11,0.24,0.3
			c-0.02,0.38-0.04,0.93-0.06,1.65c-0.02,0.72-0.04,1.21-0.05,1.46c-0.04,0.87-0.19,1.48-0.44,1.85c-0.25,0.36-0.51,0.61-0.78,0.75
			c-0.27,0.14-0.6,0.2-0.98,0.19c-0.33-0.01-0.58-0.06-0.77-0.14c-0.19-0.09-0.28-0.16-0.28-0.23c0-0.03,0.02-0.06,0.06-0.1
			c0.04-0.04,0.08-0.05,0.13-0.05c0.04,0,0.11,0.02,0.22,0.06c0.11,0.04,0.23,0.06,0.37,0.07c0.25,0.01,0.5-0.06,0.74-0.2
			c0.24-0.14,0.41-0.33,0.49-0.59c0.08-0.25,0.13-0.63,0.15-1.14c0.07-1.82,0.1-2.84,0.1-3.04c0-0.21-0.17-0.34-0.51-0.4
			c-0.34-0.06-0.51-0.16-0.5-0.3c0-0.15,0.13-0.21,0.37-0.21c0.08,0,0.23,0.02,0.44,0.05c0.21,0.03,0.38,0.05,0.52,0.06
			c0.1,0,0.21,0,0.33-0.02C107.98,118.89,108.06,118.89,108.11,118.89z"/>
		<path d="M113.6,120.78c0.14,0.01,0.29,0,0.43-0.04c0.14-0.04,0.29-0.13,0.45-0.27c0.16-0.14,0.28-0.2,0.36-0.2
			c0.05,0.01,0.09,0.03,0.13,0.07c0.04,0.04,0.05,0.08,0.05,0.13c-0.01,0.08-0.08,0.18-0.2,0.28c-0.12,0.1-0.24,0.25-0.35,0.44
			c-0.11,0.19-0.19,0.3-0.26,0.32c-0.06,0.02-0.22,0.01-0.49-0.01c-0.84-0.09-1.69-0.16-2.54-0.23c-0.17-0.01-0.33,0-0.5,0.03
			c-0.17,0.03-0.34,0.13-0.52,0.28c-0.13,0.11-0.24,0.16-0.33,0.16c-0.1-0.01-0.15-0.05-0.14-0.13c0-0.06,0.09-0.17,0.26-0.32
			c0.17-0.15,0.29-0.3,0.37-0.45c0.08-0.15,0.15-0.24,0.22-0.28c0.07-0.04,0.22-0.05,0.44-0.03
			C111.86,120.62,112.73,120.7,113.6,120.78z"/>
		<path d="M122.21,116.04c0.17,0.03,0.27,0.19,0.33,0.47c0.05,0.28,0.06,0.54,0.01,0.77c-0.04,0.23-0.16,0.33-0.35,0.29
			c-0.07-0.01-0.13-0.04-0.18-0.08c-0.05-0.04-0.11-0.18-0.17-0.4c-0.06-0.22-0.18-0.38-0.37-0.49c-0.18-0.11-0.39-0.18-0.62-0.22
			c-0.33-0.05-0.58-0.03-0.74,0.06c-0.17,0.1-0.27,0.28-0.31,0.55c-0.32,2.01-0.63,4.01-0.94,6.02c-0.01,0.09,0.01,0.18,0.06,0.26
			c0.05,0.08,0.18,0.16,0.38,0.24c0.2,0.08,0.32,0.15,0.36,0.19c0.04,0.04,0.05,0.09,0.05,0.14c-0.03,0.2-0.17,0.28-0.42,0.24
			c-0.13-0.02-0.33-0.07-0.59-0.14c-0.26-0.07-0.45-0.12-0.57-0.13c-0.12-0.02-0.29-0.03-0.52-0.03c-0.23,0-0.4-0.01-0.52-0.03
			c-0.14-0.02-0.26-0.06-0.35-0.13c-0.09-0.07-0.13-0.15-0.12-0.24c0.01-0.05,0.03-0.09,0.07-0.12c0.04-0.03,0.17-0.06,0.38-0.09
			c0.21-0.02,0.36-0.08,0.45-0.18c0.09-0.1,0.14-0.21,0.16-0.34c0.29-2.03,0.58-4.07,0.88-6.1c0.05-0.37-0.24-0.6-0.87-0.69
			c-0.41-0.06-0.72-0.02-0.91,0.1c-0.12,0.07-0.21,0.19-0.28,0.36c-0.07,0.17-0.13,0.27-0.19,0.29c-0.05,0.03-0.12,0.04-0.19,0.03
			c-0.08-0.01-0.15-0.03-0.22-0.08c-0.07-0.04-0.1-0.09-0.09-0.14c0.05-0.42,0.13-0.74,0.26-0.96c0.12-0.22,0.27-0.32,0.45-0.3
			C118.42,115.42,120.32,115.71,122.21,116.04z"/>
		<path d="M129.29,122.93c0.15-0.16,0.22-0.25,0.23-0.29c0.02-0.06,0.01-0.11-0.03-0.16c-0.03-0.05-0.13-0.09-0.3-0.15
			c-0.16-0.05-0.26-0.1-0.3-0.14c-0.04-0.04-0.05-0.09-0.03-0.14c0.02-0.09,0.07-0.15,0.14-0.17c0.07-0.02,0.18-0.01,0.32,0.02
			c0.04,0.01,0.15,0.05,0.32,0.12c0.17,0.07,0.34,0.13,0.49,0.17c0.03,0.01,0.14,0.02,0.31,0.04c0.18,0.02,0.33,0.05,0.46,0.08
			c0.22,0.06,0.31,0.15,0.27,0.28c-0.04,0.13-0.21,0.17-0.51,0.13c-0.25-0.04-0.51,0.09-0.78,0.4c-0.68,0.77-1.35,1.54-2.01,2.32
			c-0.15,0.18-0.28,0.26-0.39,0.24c-0.1-0.02-0.17-0.09-0.19-0.2c-0.02-0.11-0.04-0.18-0.05-0.2c-0.28-0.76-0.58-1.52-0.88-2.28
			c-0.05-0.12-0.1-0.19-0.15-0.2c-0.05-0.01-0.11,0.03-0.19,0.13c-0.51,0.61-1.01,1.22-1.51,1.84c-0.02,0.02-0.03,0.04-0.05,0.06
			c-0.11,0.14-0.22,0.21-0.34,0.18c-0.07-0.01-0.12-0.05-0.15-0.1c-0.03-0.05-0.07-0.13-0.11-0.25c-0.34-1.02-0.7-2.04-1.08-3.06
			c-0.14-0.39-0.34-0.61-0.57-0.65c-0.16-0.03-0.28-0.07-0.36-0.14c-0.08-0.06-0.11-0.13-0.1-0.2c0.03-0.16,0.16-0.21,0.4-0.17
			c0.22,0.04,0.43,0.09,0.61,0.16c0.18,0.07,0.33,0.11,0.45,0.13c0.06,0.01,0.2,0.02,0.41,0.03c0.21,0.01,0.34,0.02,0.4,0.03
			c0.17,0.03,0.29,0.08,0.35,0.13c0.06,0.05,0.09,0.12,0.07,0.2c-0.02,0.09-0.12,0.15-0.3,0.16c-0.18,0.01-0.28,0.07-0.3,0.17
			c-0.01,0.04,0.02,0.15,0.08,0.32c0.21,0.56,0.41,1.11,0.6,1.67c0.03,0.1,0.07,0.15,0.12,0.16c0.04,0.01,0.09-0.03,0.15-0.1
			c0.45-0.55,0.91-1.1,1.38-1.64c0.16-0.19,0.27-0.32,0.35-0.38c0.07-0.06,0.14-0.08,0.2-0.07c0.06,0.01,0.12,0.1,0.19,0.26
			c0.32,0.83,0.64,1.66,0.94,2.49c0.02,0.07,0.05,0.11,0.09,0.11c0.04,0.01,0.08-0.01,0.13-0.06
			C128.49,123.78,128.89,123.36,129.29,122.93z"/>
		<path d="M134.26,123.06c0.75,0.22,1.34,0.62,1.76,1.2c0.42,0.58,0.53,1.13,0.35,1.66c-0.2,0.59-0.63,1-1.26,1.22
			c-0.64,0.22-1.38,0.2-2.24-0.04c-0.68-0.19-1.23-0.55-1.67-1.09c-0.44-0.53-0.58-1.09-0.42-1.67c0.15-0.55,0.54-0.98,1.15-1.26
			C132.54,122.8,133.32,122.79,134.26,123.06z M133.15,126.66c0.5,0.14,0.95,0.11,1.35-0.1c0.4-0.21,0.67-0.54,0.82-0.99
			c0.15-0.45,0.11-0.86-0.13-1.25c-0.24-0.39-0.61-0.65-1.12-0.8c-0.52-0.15-0.98-0.12-1.35,0.08c-0.37,0.2-0.62,0.53-0.76,0.98
			c-0.14,0.5-0.1,0.93,0.13,1.31C132.31,126.27,132.67,126.53,133.15,126.66z"/>
		<path d="M96.81,128.86c0.15-0.01,0.27,0.12,0.38,0.4c0.11,0.27,0.17,0.53,0.18,0.77c0.01,0.24-0.06,0.36-0.23,0.38
			c-0.06,0-0.12-0.01-0.17-0.04c-0.05-0.03-0.13-0.15-0.23-0.36c-0.1-0.21-0.24-0.34-0.42-0.41c-0.18-0.06-0.37-0.09-0.57-0.07
			c-0.29,0.02-0.49,0.1-0.61,0.23c-0.12,0.13-0.17,0.34-0.14,0.62c0.18,2.08,0.35,4.17,0.52,6.25c0.01,0.09,0.04,0.18,0.11,0.24
			c0.06,0.07,0.19,0.12,0.37,0.16c0.19,0.04,0.3,0.07,0.34,0.11c0.04,0.04,0.07,0.08,0.07,0.13c0.01,0.21-0.09,0.32-0.3,0.34
			c-0.12,0.01-0.29,0.01-0.52-0.01c-0.23-0.01-0.4-0.01-0.51,0c-0.1,0.01-0.25,0.04-0.44,0.09c-0.19,0.05-0.34,0.08-0.44,0.09
			c-0.12,0.01-0.23,0-0.32-0.05c-0.09-0.05-0.14-0.12-0.15-0.22c0-0.05,0.01-0.09,0.03-0.13c0.03-0.04,0.13-0.1,0.3-0.17
			c0.17-0.07,0.28-0.17,0.33-0.28c0.05-0.12,0.07-0.24,0.06-0.38c-0.2-2.1-0.39-4.21-0.6-6.31c-0.04-0.38-0.33-0.55-0.89-0.49
			c-0.36,0.04-0.61,0.14-0.74,0.31c-0.08,0.1-0.13,0.24-0.16,0.42c-0.02,0.18-0.05,0.3-0.09,0.34c-0.04,0.04-0.09,0.06-0.16,0.07
			c-0.07,0.01-0.13,0-0.2-0.03c-0.07-0.03-0.1-0.06-0.11-0.12c-0.05-0.43-0.05-0.77,0-1.02c0.05-0.25,0.16-0.39,0.31-0.4
			C93.48,129.12,95.15,128.97,96.81,128.86z"/>
		<path d="M100.37,132.96c0.68-0.02,1.29,0.18,1.8,0.62c0.51,0.44,0.76,0.95,0.76,1.53c0,0.65-0.23,1.19-0.69,1.61
			c-0.46,0.42-1.08,0.65-1.86,0.68c-0.61,0.03-1.17-0.15-1.68-0.54c-0.51-0.39-0.79-0.89-0.83-1.52c-0.03-0.6,0.16-1.14,0.58-1.61
			C98.88,133.25,99.52,132.99,100.37,132.96z M100.5,136.87c0.45-0.02,0.81-0.19,1.08-0.53c0.27-0.33,0.4-0.75,0.39-1.24
			c-0.01-0.49-0.16-0.89-0.47-1.19c-0.31-0.31-0.69-0.45-1.16-0.43c-0.48,0.02-0.84,0.19-1.09,0.51c-0.25,0.32-0.36,0.73-0.34,1.21
			c0.02,0.54,0.19,0.96,0.48,1.25C99.7,136.75,100.06,136.89,100.5,136.87z"/>
		<path d="M107.07,134.87c0.09,0,0.16-0.01,0.19-0.04c0.03-0.03,0.05-0.09,0.06-0.17c0.01-0.3-0.1-0.58-0.33-0.84
			c-0.23-0.27-0.6-0.4-1.09-0.41c-0.34-0.01-0.7,0.14-1.06,0.45c-0.37,0.3-0.55,0.74-0.55,1.31c0,0.41,0.18,0.78,0.55,1.11
			c0.37,0.33,0.78,0.5,1.23,0.51c0.35,0.01,0.73-0.09,1.14-0.3c0.16-0.08,0.26-0.11,0.31-0.11c0.07,0,0.13,0.02,0.17,0.06
			c0.04,0.04,0.06,0.09,0.06,0.15c-0.01,0.14-0.23,0.31-0.68,0.5c-0.44,0.19-0.89,0.28-1.35,0.28c-0.68-0.01-1.25-0.24-1.71-0.7
			c-0.46-0.46-0.7-1-0.7-1.64c0-0.58,0.26-1.08,0.79-1.5c0.53-0.41,1.14-0.62,1.8-0.6c0.86,0.02,1.5,0.25,1.91,0.68
			c0.41,0.43,0.59,0.94,0.56,1.51c-0.01,0.12-0.04,0.2-0.11,0.23c-0.07,0.03-0.18,0.04-0.36,0.03c-0.92-0.03-1.84-0.05-2.76-0.06
			c-0.22,0-0.34-0.08-0.33-0.24c0-0.15,0.12-0.23,0.35-0.23C105.78,134.84,106.42,134.85,107.07,134.87z"/>
		<path d="M109.9,133.98c-0.01,0.09,0.03,0.18,0.11,0.28c0.08,0.1,0.35,0.28,0.8,0.54c0.45,0.27,0.74,0.52,0.89,0.76
			c0.14,0.24,0.2,0.48,0.18,0.73c-0.04,0.39-0.23,0.69-0.58,0.89c-0.35,0.21-0.79,0.3-1.32,0.27c-0.29-0.02-0.58-0.09-0.86-0.23
			c-0.28-0.14-0.42-0.27-0.41-0.4c0.01-0.11,0.01-0.24,0-0.39c-0.01-0.15-0.01-0.28,0-0.37c0.01-0.19,0.11-0.28,0.29-0.27
			c0.05,0,0.1,0.03,0.14,0.07c0.04,0.04,0.1,0.19,0.18,0.44c0.08,0.25,0.18,0.42,0.31,0.51c0.13,0.1,0.28,0.15,0.45,0.16
			c0.21,0.01,0.39-0.04,0.55-0.17c0.15-0.13,0.24-0.29,0.26-0.51c0.01-0.14-0.03-0.27-0.12-0.4c-0.09-0.13-0.35-0.31-0.78-0.54
			c-0.43-0.23-0.71-0.44-0.84-0.65c-0.12-0.2-0.18-0.42-0.17-0.65c0.02-0.3,0.18-0.55,0.49-0.74c0.31-0.19,0.66-0.27,1.06-0.24
			c0.33,0.02,0.65,0.1,0.95,0.23c0.3,0.13,0.45,0.26,0.44,0.38c-0.01,0.07-0.01,0.16,0,0.27c0.01,0.11,0.01,0.2,0,0.26
			c-0.01,0.08-0.03,0.15-0.08,0.21c-0.05,0.06-0.11,0.08-0.17,0.08c-0.09-0.01-0.16-0.03-0.19-0.08c-0.04-0.05-0.06-0.13-0.09-0.24
			c-0.02-0.12-0.07-0.21-0.13-0.28c-0.07-0.07-0.16-0.14-0.28-0.2c-0.12-0.06-0.25-0.1-0.4-0.11c-0.15-0.01-0.3,0.03-0.44,0.11
			C109.98,133.79,109.91,133.88,109.9,133.98z"/>
	</g>
</g>
<line x1="99.54" y1="105.52" x2="99.54" y2="105.52"/>
<g>
	<path class="st2" d="M111.55,92.96c1.11-3.94,2.88-7.71,5.23-11.12c0.68,3.36,0.91,6.79,0.7,10.21"/>
	<path class="st2" d="M97.41,92.96c-1.11-3.94-2.88-7.71-5.23-11.12c-0.68,3.36-0.91,6.79-0.7,10.21"/>
	<path d="M104.55,104.17c2.22-1.9,2.17-3.37,0.06-3.1C102.5,101.34,104.55,104.17,104.55,104.17z"/>
	<path d="M114.21,102.54c-0.03,0.14-0.07,0.28-0.16,0.41c-0.34,0.5-0.64,1.07-1.1,1.48c-0.28,0.25-0.61,0.42-0.98,0.52
		c-0.44,0.32-0.88,0.49-1.45,0.55c-0.18,0.02-0.37-0.03-0.56-0.12c-0.21,0.04-0.43,0.07-0.65,0.07c-0.62,0.34-1.36,0.33-2.01,0.02
		c0,0,0,0,0,0c-0.3,0.05-0.63,0.02-0.86-0.15c-0.09-0.06-0.17-0.11-0.27-0.16c-0.29-0.14-0.5-0.43-0.6-0.74l-0.65,0.14
		c3.86,2.94,8.24,0,8.24,0l1.39-2.1L114.21,102.54z"/>
	<path d="M103.32,104.4c-0.4,0.64-1.22,1.02-2.03,1.1c-0.39,0.27-0.89,0.3-1.37,0.1c0.01,0.01,0.02,0.01,0.03,0.01
		c-0.05-0.02-0.1-0.04-0.16-0.05c-0.11-0.03-0.22-0.06-0.34-0.08c-0.09-0.02-0.18-0.03-0.26-0.04c-0.06-0.01-0.12-0.02-0.18-0.02
		c0.03,0,0.06,0.01,0.08,0.01c-0.31-0.04-0.61-0.08-0.91-0.14c-0.01,0-0.03,0-0.04,0c-0.18,0-0.33-0.03-0.47-0.08
		c-0.01,0-0.02-0.01-0.03-0.01c-0.14-0.05-0.26-0.13-0.36-0.22l0,0c-0.21-0.11-0.41-0.24-0.59-0.39c-0.32-0.11-0.62-0.25-0.86-0.48
		c-0.25-0.22-0.39-0.5-0.46-0.8c-0.18-0.2-0.27-0.45-0.3-0.7l-0.62-0.13l1.39,2.1c0,0,4.38,2.94,8.24,0L103.32,104.4z"/>
	<polyline points="109.99,101.03 116.79,98.01 109.99,101.27 117.56,99.15 	"/>
	<polyline points="109.99,101.53 117.56,100.49 109.99,101.79 	"/>
	<polyline points="100.96,101.03 94.91,98.74 100.96,101.27 94.41,100 	"/>
	<path d="M100.96,101.53"/>
	<polyline points="94.41,101.03 100.96,101.53 100.96,101.27 	"/>
</g>
<path class="st0" d="M164.13,88.91c-3.98,0-7.2,3.22-7.2,7.2c0,3.98,3.22,7.2,7.2,7.2s7.2-3.22,7.2-7.2
	C171.33,92.14,168.11,88.91,164.13,88.91z M164.18,102.63c-8.38,0-8.36-13,0-13C172.56,89.63,172.54,102.63,164.18,102.63z"/>
<g>
	<path d="M82.47,107.86c-2.02-0.04-3.68,2.16-3.71,4.91c-0.03,2.75,1.58,5.02,3.6,5.06c2.02,0.04,3.68-2.16,3.71-4.91
		C86.1,110.16,84.49,107.9,82.47,107.86z M82.37,117.35c-4.25-0.09-4.15-9.08,0.1-9C86.72,108.44,86.62,117.43,82.37,117.35z"/>
	<ellipse transform="matrix(9.197216e-03 -1 1 9.197216e-03 -27.5833 183.0814)" cx="78.59" cy="105.46" rx="0.4" ry="0.16"/>
	<ellipse cx="80.24" cy="104.17" rx="0.29" ry="0.39"/>
	<ellipse cx="82.55" cy="103.84" rx="0.28" ry="0.38"/>
	<ellipse cx="85.51" cy="104.6" rx="0.24" ry="0.32"/>
	<ellipse cx="78.73" cy="105.46" rx="0.3" ry="0.4"/>
	<ellipse cx="89.39" cy="110.12" rx="0.27" ry="0.37"/>
	<ellipse cx="88.11" cy="116.62" rx="0.19" ry="0.26"/>
</g>
<g class="st0">
	<circle class="st1" cx="172.61" cy="85.98" r="0.33"/>
	<circle class="st1" cx="168.12" cy="83.82" r="0.42"/>
	<circle class="st1" cx="162.1" cy="83.82" r="0.42"/>
	<circle class="st1" cx="156.33" cy="85.53" r="0.45"/>
	<circle class="st1" cx="149.52" cy="92.69" r="0.45"/>
	<circle class="st1" cx="153.26" cy="103.8" r="0.36"/>
</g>
<circle cx="159.03" cy="134.63" r="0.42"/>
<g class="st0">
	<path class="st1" d="M154.25,136.37c-2.81,0-5.09,2.25-5.09,5.02c0,2.77,2.28,5.02,5.09,5.02s5.09-2.25,5.09-5.02
		C159.34,138.61,157.07,136.37,154.25,136.37z M154.21,145.46c-5.51,0-5.5-8.43,0-8.43C159.72,137.03,159.71,145.46,154.21,145.46z"
		/>
	<circle class="st1" cx="146.35" cy="142.79" r="0.53"/>
	<circle class="st1" cx="151.67" cy="135" r="0.54"/>
	<circle class="st1" cx="155.32" cy="134.46" r="0.59"/>
	<circle class="st1" cx="160.92" cy="136.7" r="0.54"/>
</g>
<g>
	<path d="M82.75,138.71c-2.12,0-3.84,1.97-3.84,4.4c0,2.43,1.72,4.4,3.84,4.4s3.84-1.97,3.84-4.4
		C86.58,140.68,84.87,138.71,82.75,138.71z M82.82,146.85c-4.15,0-4.15-7.39,0-7.39C86.98,139.46,86.97,146.85,82.82,146.85z"/>
	<ellipse cx="79.2" cy="138.14" rx="0.29" ry="0.33"/>
	<ellipse cx="81.44" cy="136.98" rx="0.3" ry="0.35"/>
	<ellipse cx="84.34" cy="136.98" rx="0.3" ry="0.35"/>
	<ellipse cx="86.61" cy="138.14" rx="0.29" ry="0.33"/>
	<ellipse class="st3" cx="88.65" cy="142.96" rx="0.33" ry="0.38"/>
	<ellipse cx="88.06" cy="144.16" rx="0.26" ry="0.29"/>
</g>
<rect x="61.95" y="113.13" class="st3" width="74.27" height="14.26"/>
<path class="st4" d="M98.29,171.81c2.37-2.86,5.34-2.57,8.05-1.75s5.49,2.08,8.18,0.83c0.43-0.2,0.88-0.49,1.18-1.14
	c0.54-1.18,0.36-3.13-0.2-4.24c-0.55-1.11-1.36-1.56-2.14-1.89c-1.82-0.77-3.69-1.11-5.56-0.99c-5.02,0.32-10.04,3.85-14.97,2.29
	c-0.75-0.24-1.51-0.61-2.1-1.52c-0.59-0.91-0.96-2.48-0.73-3.9c0.29-1.76,1.32-2.6,2.24-3.01c3.28-1.45,6.65-0.44,9.97,0.25
	c0.69,0.14,1.4,0.27,2.06-0.19s1.24-1.66,1.2-3.01c-0.05-1.63-0.9-2.6-1.65-3.3"/>
<rect x="56.53" y="118.97" class="st3" width="98.86" height="29.4"/>
<text transform="matrix(1 0 0 1 69.6928 127.3362)"><tspan x="0" y="0" class="st5 st6">twenty-two toes</tspan><tspan x="22.09" y="8" class="st5 st7">soap co.</tspan></text>
<g>
	<path d="M124.46,111.74c0.03,2.52,1.56,4.53,3.42,4.49c1.86-0.04,3.35-2.11,3.32-4.63c-0.03-2.52-1.56-4.53-3.42-4.49
		C125.92,107.15,124.43,109.22,124.46,111.74z M127.78,107.57c3.92-0.08,4.01,8.15,0.09,8.23
		C123.95,115.88,123.86,107.64,127.78,107.57z"/>
	<ellipse transform="matrix(1 -9.296264e-03 9.296264e-03 1 -0.9697 1.2256)" cx="131.35" cy="104.92" rx="0.15" ry="0.37"/>
	<ellipse cx="129.84" cy="103.74" rx="0.26" ry="0.36"/>
	<ellipse cx="127.7" cy="103.44" rx="0.25" ry="0.34"/>
	<ellipse cx="124.98" cy="104.13" rx="0.22" ry="0.3"/>
	<ellipse cx="131.23" cy="104.92" rx="0.27" ry="0.37"/>
	<ellipse cx="121.4" cy="109.18" rx="0.25" ry="0.34"/>
	<ellipse cx="122.58" cy="115.13" rx="0.18" ry="0.24"/>
</g>
<g>
	<path d="M120.82,144.73c0,2.43,1.72,4.4,3.84,4.4s3.84-1.97,3.84-4.4c0-2.43-1.72-4.4-3.84-4.4S120.82,142.29,120.82,144.73z
		 M124.59,141.07c4.15,0,4.15,7.39,0,7.39C120.44,148.47,120.43,141.07,124.59,141.07z"/>
	<ellipse cx="128.21" cy="139.76" rx="0.29" ry="0.33"/>
	<ellipse cx="125.96" cy="138.6" rx="0.3" ry="0.35"/>
	<ellipse cx="123.07" cy="138.6" rx="0.3" ry="0.35"/>
	<ellipse cx="120.79" cy="139.76" rx="0.29" ry="0.33"/>
	<ellipse class="st3" cx="118.76" cy="144.58" rx="0.33" ry="0.38"/>
	<ellipse cx="119.35" cy="145.77" rx="0.26" ry="0.29"/>
</g>
<path class="st8" d="M28.97,154.14"/>
<path class="st8" d="M103.21,145.96c1.25,1.46,2.01,0.96,3.91,2.31c1.67,1.19,2.4,4.36,0.94,5.85c-0.68,0.7-4.55,1.63-5.34,1.79
	c-6.45,1.31-5.91,4.1-6.11,4.88c-0.49,1.93,1.62,4.93,4.34,6.24c3.36,1.61,6.04,0.24,6.82-1.11c1.09-1.88-0.44-6.07-0.53-5.6"/>
</svg>
